<?xml version="1.0" encoding="UTF-8"?>
<svg id="Layer_1" data-name="Layer 1" xmlns="http://www.w3.org/2000/svg" viewBox="0 0 135.97 137.11">
  <defs>
    <style>
      .cls-1 {
        fill: #fff;
      }
    </style>
  </defs>
  <path class="cls-1" d="M37.54,49.87c-10.78,16.09-3.94,36.41,11.09,47.06-4.82.22-8.59-3.88-11.79-6.91-2.21,1.82,3.08,6.22,4.95,7.52,6.4,4.44,11.82,3.76,19.31,3.56-.62,1.8-3.85,17.25-5.53,15.23l-1.38-6.92-4.87,15.22,2.08-16.61c-7.36,1.52-19.74-3.09-21.89-10.69-.71-2.51.14-5.24-.57-7.74-.66-2.33-4.6-4.28-5.07-7.51s2.19-5.11,2.13-6.62c-.05-1.23-3.36-3.73-3.72-7.04-.84-7.74,7.85-17.16,15.25-18.57Z"/>
  <path class="cls-1" d="M117.95,42.95c-4.14,5.79-12.89,8.48-19.4,11.08.17,2.54,4.31.9,6.91,2.08,7.45,3.37,10.13,15.29,5.41,22.04-1.2,1.72-6.71,3.09-2.34,6.08.84.58,16.55,3.36,19.96,4.28,2.05.55,7.12.67,7.48,2.89l-28.14-4.21c-6.75,9.36-10.7,19.06-24.53,16.69-.74-3.78.94-2.37,2.8-3.36,3.97-2.1,7.24-2.39,9.98-6.71,1.28-2.01,6.77-21.36,6.69-23.81-.15-4.6-3.17-10.13-5.58-14-1.41-1.05-14.54,8.21-13.89.82l34.66-13.86Z"/>
  <path class="cls-1" d="M63.88,0c2.01.23,2.37,6.05,2.61,7.78.66,4.71.06,9.69,1.56,14.37l5.52-9.69-1.23,9.55c5.71-.24,9.62,9.17,12.65,10.89s9.5-1.64,12.17,2.42l-2.5.87c2.97,9.85-1.14,3.62-5.11,2.43-2.2-.66-4.72.16-6.17-.57-2.96-1.48-4.9-6.51-9.42-7.38-5.33-1.03-7.89,3.48-11,3.71-1.68.12-3.29-2.08-5.36-2.48-8.62-1.67-12.08,2.64-17.27,8.26-1.51-5.01,4.53-9.39,5.33-12.08,1.68-5.61-6.69-16.33-6.72-22.55,4.18,1.8,9.19,17.75,11.33,19.14s13.61,2.28,13.61-1.82V0Z"/>
  <path class="cls-1" d="M86.07,52.62c-6.61-1-9.28-8.03-16.63-4.12-.59,4.72,4.77,2.04,7.55,5.6,1.05,1.35,2.89,6.99.07,6.83-.53-.03-2.48-3.58-5.59-4.13-3.8-.67-6.8.81-10.34,1.38l2.76-8.29c-2.59-.52-4.19-1.68-6.95-.86s-4.32,4.51-6.92,4.29c5.6-15.61,29.78-15.23,36.06-.69Z"/>
  <path class="cls-1" d="M57.28,78.63l15.33,2.86,10.68-12.23c2.72,6.74-1.33,15.25-8.23,17.4-4.42,1.38-16.94.59-20.45-2.6-4.29-3.91-4.58-11.91.94-14.8l1.72,9.38Z"/>
  <path class="cls-1" d="M73.6,96.94l1.39-4.14,3.44,4.12,9.02-6.89c1.56,6-7.64,10.13-8.19,11.98-1.13,3.8,7.06,15.51,2.63,21.25-7.86-7.24-3.32-20.62-15.23-24.24l4.17-.69-1.39-8.31,4.16,6.92Z"/>
  <path class="cls-1" d="M34.76,42.95l-8.25,2.09c-7.23-6.31-15.75-11.1-23.25-17.03-1.66-1.31-3.79-1.58-3.14-4.47l34.64,19.41Z"/>
  <path class="cls-1" d="M122.1,26.32c.75,3.07-1.75,3.08-3.17,4.43-4.24,4.02-14.67,12.37-19.6,15.05-2.7,1.46-2.69,2.02-4.91-.79l27.69-18.7Z"/>
  <path class="cls-1" d="M74.96,137.11l-6.36-22.13,1.53-5.56c2.77,8.87,4.54,18.34,4.83,27.69Z"/>
  <path class="cls-1" d="M26.44,48.48l-3.45,5.19c-4.31-2.33-9.33-4.95-11.8-9.34,5.23,1,9.6,4.82,15.24,4.15Z"/>
  <path class="cls-1" d="M26.44,92.8c3.11,2.84-15.11,12.08-18.01,11.06l12.61-8.85,5.4-2.21Z"/>
</svg>